<svg width="1030" height="145" viewBox="0 0 1030 145" fill="none" xmlns="http://www.w3.org/2000/svg">
<rect x="5" y="5" width="1025" height="140" rx="20" fill="#B2B2B2"/>
<rect x="1.5" y="1.5" width="1022" height="137" rx="18.5" fill="white" stroke="black" stroke-width="3"/>
<path d="M45.76 34.32H48.56C48.56 39.24 45.42 42.58 39.9 44L38.9 41.92C43.44 40.78 45.76 38.42 45.76 35.64V34.32ZM39.96 34.32H47.48V36.4H39.96V34.32ZM51.52 33.26H54.2V43.58H51.52V33.26ZM41.94 44.36H54.2V51.58H41.94V44.36ZM51.58 46.46H44.56V49.48H51.58V46.46ZM70.0784 33.26H72.7184V51.78H70.0784V33.26ZM72.1184 40.48H75.3984V42.7H72.1184V40.48ZM58.1184 36H68.8984V38.12H58.1184V36ZM63.5384 39.16C66.2384 39.16 68.2384 41 68.2384 43.58C68.2384 46.16 66.2384 48 63.5384 48C60.8384 48 58.8384 46.16 58.8384 43.58C58.8384 41 60.8384 39.16 63.5384 39.16ZM63.5384 41.32C62.2784 41.32 61.3784 42.16 61.3784 43.58C61.3784 45 62.2784 45.84 63.5384 45.84C64.7984 45.84 65.6984 45 65.6984 43.58C65.6984 42.16 64.7984 41.32 63.5384 41.32ZM62.1984 33.56H64.8584V36.8H62.1984V33.56ZM79.6769 36.96H92.4569V39.06H79.6769V36.96ZM77.5969 40.26H94.3769V42.36H77.5969V40.26ZM79.6769 33.46H82.3169V38.08H79.6769V33.46ZM79.4969 43.48H92.3969V48.4H82.1769V50.04H79.5169V46.52H89.7369V45.48H79.4969V43.48ZM79.5169 49.56H92.9369V51.58H79.5169V49.56Z" fill="black" fill-opacity="0.5"/>
<path d="M54.9 61.325H58.25V73.175H54.9V61.325ZM42.8 74.1H58.25V80.325H46.1V82.75H42.85V78H54.95V76.625H42.8V74.1ZM42.85 81.775H58.825V84.325H42.85V81.775ZM44.625 63.525H47.325V64.425C47.325 68.525 45.15 72.175 40.625 73.45L39.1 70.85C42.95 69.775 44.625 67.075 44.625 64.425V63.525ZM45.35 63.525H48.025V64.425C48.025 66.875 49.675 69.4 53.45 70.425L51.925 72.975C47.475 71.775 45.35 68.3 45.35 64.425V63.525ZM39.975 62.375H52.575V65H39.975V62.375ZM63.248 72.75H84.198V75.4H63.248V72.75ZM72.323 74.425H75.673V79.3H72.323V74.425ZM65.823 62.3H81.548V70.9H65.823V62.3ZM78.273 64.9H69.073V68.3H78.273V64.9ZM65.673 81.425H81.898V84.075H65.673V81.425ZM65.673 77.35H68.973V82.3H65.673V77.35ZM100.44 75.375H102.94V76.15C102.94 79.65 101.39 82.85 97.7652 84.15L96.1402 81.725C99.1652 80.7 100.44 78.4 100.44 76.15V75.375ZM101.29 75.375H103.665V76.15C103.665 78.4 104.79 80.75 107.615 81.925L106.29 84.375C102.615 83 101.29 79.55 101.29 76.15V75.375ZM108.89 75.375H111.265V76.15C111.265 79.35 109.89 82.95 106.29 84.375L104.915 81.925C107.74 80.65 108.89 78.2 108.89 76.15V75.375ZM109.665 75.375H112.165V76.15C112.165 78.55 113.415 80.775 116.465 81.725L114.84 84.15C111.165 82.9 109.665 79.8 109.665 76.15V75.375ZM111.14 61.35H114.49V74.425H111.14V61.35ZM101.89 62.525C105.49 62.525 108.165 64.825 108.165 68.075C108.165 71.3 105.49 73.6 101.89 73.6C98.2902 73.6 95.5902 71.3 95.5902 68.075C95.5902 64.825 98.2902 62.525 101.89 62.525ZM101.89 65.275C100.14 65.275 98.8402 66.3 98.8402 68.075C98.8402 69.825 100.14 70.85 101.89 70.85C103.64 70.85 104.915 69.825 104.915 68.075C104.915 66.3 103.64 65.275 101.89 65.275ZM125.838 62.925C129.288 62.925 131.813 66.125 131.813 71.175C131.813 76.275 129.288 79.475 125.838 79.475C122.363 79.475 119.863 76.275 119.863 71.175C119.863 66.125 122.363 62.925 125.838 62.925ZM125.838 65.95C124.163 65.95 123.038 67.775 123.038 71.175C123.038 74.625 124.163 76.475 125.838 76.475C127.538 76.475 128.638 74.625 128.638 71.175C128.638 67.775 127.538 65.95 125.838 65.95ZM135.613 61.3H138.913V84.525H135.613V61.3ZM130.838 69.65H137.013V72.325H130.838V69.65ZM148.361 73.075H151.661V79.575H148.361V73.075ZM156.761 73.075H160.086V79.575H156.761V73.075ZM143.761 79.1H164.711V81.8H143.761V79.1ZM154.211 62.45C159.186 62.45 162.861 64.9 162.861 68.675C162.861 72.45 159.186 74.875 154.211 74.875C149.211 74.875 145.561 72.45 145.561 68.675C145.561 64.9 149.211 62.45 154.211 62.45ZM154.211 65.05C150.986 65.05 148.836 66.375 148.836 68.675C148.836 70.95 150.986 72.3 154.211 72.3C157.436 72.3 159.586 70.95 159.586 68.675C159.586 66.375 157.436 65.05 154.211 65.05ZM173.684 74.725C173.068 74.4583 172.543 74.2833 172.109 74.2C171.693 74.1 171.293 74.05 170.909 74.05C170.443 74.05 169.951 74.1917 169.434 74.475C168.934 74.7583 168.476 75.1083 168.059 75.525V72.7C168.476 72.2667 168.943 71.9417 169.459 71.725C169.976 71.4917 170.551 71.375 171.184 71.375C171.668 71.375 172.151 71.425 172.634 71.525C173.134 71.6083 173.776 71.8167 174.559 72.15C175.176 72.4167 175.701 72.6 176.134 72.7C176.568 72.7833 176.968 72.825 177.334 72.825C177.818 72.825 178.309 72.6833 178.809 72.4C179.309 72.1167 179.768 71.7667 180.184 71.35V74.175C179.768 74.6083 179.301 74.9417 178.784 75.175C178.268 75.3917 177.693 75.5 177.059 75.5C176.576 75.5 176.084 75.45 175.584 75.35C175.101 75.25 174.468 75.0417 173.684 74.725ZM187.616 76.325H184.641L184.016 64.4H188.241L187.616 76.325ZM183.966 80.5C183.966 79.7333 184.174 79.2 184.591 78.9C185.008 78.5833 185.516 78.425 186.116 78.425C186.699 78.425 187.199 78.5833 187.616 78.9C188.033 79.2 188.241 79.7333 188.241 80.5C188.241 81.2333 188.033 81.7667 187.616 82.1C187.199 82.4167 186.699 82.575 186.116 82.575C185.516 82.575 185.008 82.4167 184.591 82.1C184.174 81.7667 183.966 81.2333 183.966 80.5Z" fill="black"/>
<path d="M51.22 93.7378H52.9V111.838H51.22V93.7378ZM52.44 101.078H55.78V102.458H52.44V101.078ZM46.6 95.6978H48.22C48.22 100.838 45.86 105.478 40.02 108.418L39.1 107.138C44.1 104.598 46.6 100.738 46.6 95.9578V95.6978ZM39.94 95.6978H47.46V97.0578H39.94V95.6978ZM71.8384 100.958H75.1784V102.358H71.8384V100.958ZM70.6184 93.7378H72.2984V111.838H70.6184V93.7378ZM59.0984 95.5178H60.7584V106.718H59.0984V95.5178ZM59.0984 105.858H60.5384C63.2184 105.858 65.9584 105.678 68.9384 105.058L69.1384 106.438C66.0584 107.078 63.2784 107.258 60.5384 107.258H59.0984V105.858ZM90.0169 93.7378H91.6969V111.858H90.0169V93.7378ZM91.2969 100.878H94.6569V102.278H91.2969V100.878ZM78.5569 105.958H79.9769C83.3169 105.958 85.6569 105.838 88.3569 105.338L88.5369 106.738C85.7569 107.258 83.3769 107.358 79.9769 107.358H78.5569V105.958ZM78.5569 95.4978H86.9569V96.8578H80.1969V106.578H78.5569V95.4978ZM109.435 93.7378H111.095V111.858H109.435V93.7378ZM110.695 100.938H114.055V102.338H110.695V100.938ZM97.9153 106.118H99.3553C102.755 106.118 105.115 105.998 107.855 105.478L108.035 106.858C105.215 107.358 102.815 107.498 99.3553 107.498H97.9153V106.118ZM97.8753 95.4378H106.055V101.918H99.5553V106.678H97.9153V100.558H104.415V96.7978H97.8753V95.4378ZM117.294 95.5578H125.594V107.258H117.294V95.5578ZM123.974 96.8978H118.914V105.918H123.974V96.8978ZM128.814 93.7578H130.494V111.838H128.814V93.7578ZM130.094 100.978H133.454V102.378H130.094V100.978ZM148.212 93.7578H149.892V111.838H148.212V93.7578ZM149.492 100.858H152.852V102.278H149.492V100.858ZM136.692 95.2778H138.332V100.058H143.492V95.2778H145.132V107.498H136.692V95.2778ZM138.332 101.378V106.138H143.492V101.378H138.332ZM159.811 95.3178H161.171V98.5578C161.171 102.558 159.011 106.458 156.151 107.978L155.131 106.658C157.751 105.338 159.811 101.858 159.811 98.5578V95.3178ZM160.111 95.3178H161.451V98.5578C161.451 101.738 163.471 105.038 166.031 106.318L165.011 107.638C162.211 106.138 160.111 102.438 160.111 98.5578V95.3178ZM167.611 93.7578H169.291V111.838H167.611V93.7578ZM168.891 101.078H172.251V102.478H168.891V101.078ZM179.589 95.1378C182.249 95.1378 184.129 97.5978 184.129 101.438C184.129 105.298 182.249 107.758 179.589 107.758C176.929 107.758 175.049 105.298 175.049 101.438C175.049 97.5978 176.929 95.1378 179.589 95.1378ZM179.589 96.6378C177.829 96.6378 176.629 98.5178 176.629 101.438C176.629 104.378 177.829 106.298 179.589 106.298C181.329 106.298 182.549 104.378 182.549 101.438C182.549 98.5178 181.329 96.6378 179.589 96.6378ZM187.009 93.7578H188.689V111.838H187.009V93.7578ZM188.289 100.978H191.649V102.378H188.289V100.978ZM198.648 96.3378H199.968V99.2778C199.968 103.038 197.668 106.918 194.848 108.358L193.888 107.038C196.468 105.778 198.648 102.338 198.648 99.2778V96.3378ZM198.948 96.3378H200.268V99.2778C200.268 102.138 202.308 105.358 204.928 106.598L203.988 107.918C201.128 106.498 198.948 102.858 198.948 99.2778V96.3378ZM194.528 95.5978H204.268V96.9978H194.528V95.5978ZM206.408 93.7578H208.088V111.838H206.408V93.7578ZM207.688 101.058H211.048V102.458H207.688V101.058ZM217.986 98.0578H219.286V99.5978C219.286 103.418 217.206 106.938 214.346 108.358L213.406 107.078C216.066 105.798 217.986 102.718 217.986 99.5978V98.0578ZM218.306 98.0578H219.606V99.5978C219.606 102.518 221.426 105.458 224.006 106.738L223.086 108.018C220.266 106.618 218.306 103.198 218.306 99.5978V98.0578ZM213.906 96.8978H223.606V98.2378H213.906V96.8978ZM217.966 94.0778H219.606V97.6378H217.966V94.0778ZM225.806 93.7578H227.486V111.838H225.806V93.7578ZM227.086 101.178H230.446V102.558H227.086V101.178ZM240.664 95.6378H242.284C242.284 100.858 240.524 105.658 234.044 108.878L233.144 107.598C238.864 104.778 240.664 100.738 240.664 95.8178V95.6378ZM234.124 95.6378H241.644V96.9778H234.124V95.6378ZM240.404 100.118V101.398L233.484 102.078L233.224 100.598L240.404 100.118ZM245.204 93.7378H246.884V111.838H245.204V93.7378ZM246.424 101.078H249.764V102.458H246.424V101.078ZM253.143 106.118H254.563C257.903 106.118 260.203 106.038 262.923 105.558L263.103 106.918C260.303 107.398 257.943 107.498 254.563 107.498H253.143V106.118ZM253.143 95.3978H261.563V96.7778H254.803V106.598H253.143V95.3978ZM254.383 100.458H261.163V101.798H254.383V100.458ZM264.603 93.7578H266.283V111.838H264.603V93.7578ZM265.883 101.018H269.243V102.418H265.883V101.018ZM272.001 95.6978H282.061V97.0578H272.001V95.6978ZM271.741 107.378L271.541 105.958C274.801 105.958 279.181 105.918 282.901 105.458L283.001 106.698C279.221 107.318 274.921 107.378 271.741 107.378ZM273.941 96.7178H275.561V106.338H273.941V96.7178ZM278.501 96.7178H280.121V106.338H278.501V96.7178ZM284.001 93.7578H285.681V111.838H284.001V93.7578ZM285.281 100.978H288.641V102.378H285.281V100.978ZM303.42 93.7578H305.08V111.838H303.42V93.7578ZM304.68 101.178H308.04V102.578H304.68V101.178ZM291.08 96.6378H301.74V97.9978H291.08V96.6378ZM296.48 99.4978C299.04 99.4978 300.88 101.218 300.88 103.658C300.88 106.098 299.04 107.818 296.48 107.818C293.94 107.818 292.08 106.098 292.08 103.658C292.08 101.218 293.94 99.4978 296.48 99.4978ZM296.48 100.878C294.84 100.878 293.66 102.018 293.66 103.658C293.66 105.278 294.84 106.438 296.48 106.438C298.12 106.438 299.3 105.278 299.3 103.658C299.3 102.018 298.12 100.878 296.48 100.878ZM295.62 93.9778H297.28V97.2578H295.62V93.9778ZM321.613 99.2978C322.973 99.2978 323.987 99.5978 324.653 100.198C325.32 100.784 325.653 101.711 325.653 102.978V110.278H324.153L323.733 108.778H323.653C323.347 109.164 323.027 109.484 322.693 109.738C322.373 109.991 322 110.178 321.573 110.298C321.16 110.418 320.653 110.478 320.053 110.478C319.413 110.478 318.833 110.364 318.313 110.138C317.807 109.898 317.407 109.538 317.113 109.058C316.82 108.564 316.673 107.951 316.673 107.218C316.673 106.124 317.087 105.291 317.913 104.718C318.753 104.144 320.027 103.831 321.733 103.778L323.573 103.718V103.118C323.573 102.318 323.393 101.758 323.033 101.438C322.673 101.118 322.167 100.958 321.513 100.958C320.953 100.958 320.42 101.038 319.913 101.198C319.407 101.358 318.927 101.551 318.473 101.778L317.793 100.238C318.3 99.9712 318.88 99.7512 319.533 99.5778C320.2 99.3912 320.893 99.2978 321.613 99.2978ZM322.113 105.138C320.887 105.191 320.033 105.398 319.553 105.758C319.087 106.104 318.853 106.598 318.853 107.238C318.853 107.798 319.02 108.204 319.353 108.458C319.7 108.711 320.133 108.838 320.653 108.838C321.493 108.838 322.187 108.604 322.733 108.138C323.28 107.671 323.553 106.971 323.553 106.038V105.098L322.113 105.138ZM332.038 98.7378C332.038 99.1778 332.024 99.5978 331.998 99.9978C331.984 100.384 331.964 100.691 331.938 100.918H332.038C332.344 100.464 332.758 100.084 333.278 99.7778C333.798 99.4712 334.471 99.3178 335.298 99.3178C336.591 99.3178 337.631 99.7845 338.418 100.718C339.218 101.651 339.618 103.038 339.618 104.878C339.618 106.118 339.438 107.151 339.078 107.978C338.718 108.804 338.211 109.431 337.558 109.858C336.904 110.271 336.144 110.478 335.278 110.478C334.438 110.478 333.764 110.331 333.258 110.038C332.751 109.731 332.344 109.371 332.038 108.958H331.878L331.478 110.278H329.918V95.0778H332.038V98.7378ZM334.798 101.038C334.104 101.038 333.558 101.171 333.158 101.438C332.758 101.704 332.471 102.111 332.298 102.658C332.124 103.204 332.038 103.898 332.038 104.738V104.898C332.038 106.138 332.238 107.091 332.638 107.758C333.038 108.411 333.771 108.738 334.838 108.738C335.691 108.738 336.338 108.404 336.778 107.738C337.218 107.071 337.438 106.111 337.438 104.858C337.438 103.591 337.218 102.638 336.778 101.998C336.338 101.358 335.678 101.038 334.798 101.038ZM347.66 110.478C346.673 110.478 345.807 110.284 345.06 109.898C344.313 109.511 343.733 108.911 343.32 108.098C342.907 107.271 342.7 106.224 342.7 104.958C342.7 103.624 342.92 102.544 343.36 101.718C343.813 100.891 344.42 100.284 345.18 99.8978C345.953 99.4978 346.833 99.2978 347.82 99.2978C348.42 99.2978 348.98 99.3645 349.5 99.4978C350.033 99.6178 350.473 99.7578 350.82 99.9178L350.18 101.638C349.807 101.491 349.407 101.364 348.98 101.258C348.567 101.151 348.173 101.098 347.8 101.098C347.133 101.098 346.58 101.244 346.14 101.538C345.713 101.818 345.393 102.244 345.18 102.818C344.98 103.378 344.88 104.084 344.88 104.938C344.88 105.751 344.987 106.438 345.2 106.998C345.413 107.558 345.727 107.984 346.14 108.278C346.567 108.558 347.093 108.698 347.72 108.698C348.32 108.698 348.847 108.631 349.3 108.498C349.753 108.364 350.18 108.191 350.58 107.978V109.818C350.193 110.044 349.773 110.211 349.32 110.318C348.867 110.424 348.313 110.478 347.66 110.478ZM357.825 110.478C356.532 110.478 355.485 110.011 354.685 109.078C353.898 108.144 353.505 106.758 353.505 104.918C353.505 103.064 353.905 101.664 354.705 100.718C355.505 99.7712 356.558 99.2978 357.865 99.2978C358.412 99.2978 358.885 99.3712 359.285 99.5178C359.698 99.6512 360.052 99.8378 360.345 100.078C360.652 100.318 360.912 100.584 361.125 100.878H361.245C361.218 100.691 361.185 100.424 361.145 100.078C361.105 99.7178 361.085 99.3978 361.085 99.1178V95.0778H363.205V110.278H361.545L361.185 108.838H361.085C360.885 109.144 360.632 109.424 360.325 109.678C360.032 109.918 359.678 110.111 359.265 110.258C358.852 110.404 358.372 110.478 357.825 110.478ZM358.325 108.738C359.365 108.738 360.098 108.451 360.525 107.878C360.952 107.291 361.165 106.418 361.165 105.258V104.938C361.165 103.671 360.958 102.704 360.545 102.038C360.145 101.371 359.398 101.038 358.305 101.038C357.438 101.038 356.785 101.391 356.345 102.098C355.905 102.791 355.685 103.744 355.685 104.958C355.685 106.171 355.905 107.104 356.345 107.758C356.785 108.411 357.445 108.738 358.325 108.738ZM371.767 99.2978C372.714 99.2978 373.527 99.4978 374.207 99.8978C374.887 100.284 375.407 100.844 375.767 101.578C376.141 102.311 376.327 103.178 376.327 104.178V105.338H369.087C369.114 106.444 369.401 107.291 369.947 107.878C370.507 108.464 371.287 108.758 372.287 108.758C372.981 108.758 373.594 108.698 374.127 108.578C374.674 108.444 375.234 108.251 375.807 107.998V109.758C375.274 109.998 374.727 110.178 374.167 110.298C373.621 110.418 372.967 110.478 372.207 110.478C371.167 110.478 370.247 110.271 369.447 109.858C368.647 109.444 368.021 108.831 367.567 108.018C367.127 107.191 366.907 106.178 366.907 104.978C366.907 103.764 367.107 102.738 367.507 101.898C367.921 101.058 368.487 100.418 369.207 99.9778C369.941 99.5245 370.794 99.2978 371.767 99.2978ZM371.767 100.938C371.007 100.938 370.394 101.184 369.927 101.678C369.474 102.171 369.207 102.871 369.127 103.778H374.207C374.207 103.218 374.121 102.724 373.947 102.298C373.774 101.871 373.507 101.538 373.147 101.298C372.787 101.058 372.327 100.938 371.767 100.938ZM385.233 101.118H382.573V110.278H380.453V101.118H378.633V100.118L380.453 99.4578V98.7778C380.453 97.8578 380.593 97.1245 380.873 96.5778C381.166 96.0178 381.579 95.6112 382.113 95.3578C382.646 95.1045 383.293 94.9778 384.053 94.9778C384.519 94.9778 384.946 95.0178 385.333 95.0978C385.719 95.1778 386.046 95.2645 386.313 95.3578L385.773 96.9778C385.559 96.9112 385.313 96.8512 385.033 96.7978C384.753 96.7312 384.459 96.6978 384.153 96.6978C383.619 96.6978 383.219 96.8712 382.953 97.2178C382.699 97.5645 382.573 98.0912 382.573 98.7978V99.4978H385.233V101.118ZM391.841 99.2978C392.534 99.2978 393.161 99.4312 393.721 99.6978C394.281 99.9645 394.754 100.371 395.141 100.918H395.241L395.481 99.4978H397.201V110.418C397.201 111.431 397.021 112.284 396.661 112.978C396.301 113.671 395.748 114.191 395.001 114.538C394.268 114.898 393.341 115.078 392.221 115.078C391.448 115.078 390.734 115.024 390.081 114.918C389.428 114.811 388.828 114.644 388.281 114.418V112.558C388.668 112.744 389.074 112.898 389.501 113.018C389.928 113.151 390.381 113.244 390.861 113.298C391.341 113.364 391.834 113.398 392.341 113.398C393.221 113.398 393.901 113.144 394.381 112.638C394.861 112.144 395.101 111.444 395.101 110.538V110.178C395.101 110.004 395.108 109.778 395.121 109.498C395.134 109.204 395.148 108.991 395.161 108.858H395.081C394.708 109.418 394.248 109.831 393.701 110.098C393.168 110.351 392.548 110.478 391.841 110.478C390.481 110.478 389.414 109.991 388.641 109.018C387.881 108.031 387.501 106.664 387.501 104.918C387.501 103.744 387.674 102.744 388.021 101.918C388.368 101.078 388.861 100.431 389.501 99.9778C390.154 99.5245 390.934 99.2978 391.841 99.2978ZM392.281 101.058C391.721 101.058 391.248 101.211 390.861 101.518C390.474 101.811 390.181 102.244 389.981 102.818C389.781 103.391 389.681 104.098 389.681 104.938C389.681 106.191 389.901 107.144 390.341 107.798C390.794 108.451 391.454 108.778 392.321 108.778C392.828 108.778 393.254 108.711 393.601 108.578C393.961 108.444 394.254 108.238 394.481 107.958C394.721 107.678 394.894 107.324 395.001 106.898C395.121 106.458 395.181 105.931 395.181 105.318V104.918C395.181 103.998 395.074 103.258 394.861 102.698C394.661 102.124 394.348 101.711 393.921 101.458C393.494 101.191 392.948 101.058 392.281 101.058ZM403.643 99.1378C403.643 99.4712 403.63 99.8045 403.603 100.138C403.577 100.471 403.55 100.744 403.523 100.958H403.663C403.89 100.584 404.17 100.278 404.503 100.038C404.85 99.7978 405.23 99.6178 405.643 99.4978C406.07 99.3778 406.503 99.3178 406.943 99.3178C407.797 99.3178 408.51 99.4578 409.083 99.7378C409.67 100.004 410.11 100.431 410.403 101.018C410.71 101.591 410.863 102.338 410.863 103.258V110.278H408.763V103.558C408.763 102.718 408.583 102.091 408.223 101.678C407.877 101.251 407.317 101.038 406.543 101.038C405.81 101.038 405.23 101.184 404.803 101.478C404.39 101.771 404.09 102.204 403.903 102.778C403.73 103.338 403.643 104.031 403.643 104.858V110.278H401.523V95.0778H403.643V99.1378ZM417.241 99.4978V110.278H415.121V99.4978H417.241ZM416.201 95.3978C416.521 95.3978 416.801 95.4912 417.041 95.6778C417.281 95.8645 417.401 96.1778 417.401 96.6178C417.401 97.0445 417.281 97.3578 417.041 97.5578C416.801 97.7445 416.521 97.8378 416.201 97.8378C415.854 97.8378 415.561 97.7445 415.321 97.5578C415.094 97.3578 414.981 97.0445 414.981 96.6178C414.981 96.1778 415.094 95.8645 415.321 95.6778C415.561 95.4912 415.854 95.3978 416.201 95.3978ZM420.43 115.078C420.097 115.078 419.79 115.051 419.51 114.998C419.217 114.958 418.963 114.904 418.75 114.838V113.138C418.963 113.191 419.177 113.238 419.39 113.278C419.603 113.318 419.843 113.338 420.11 113.338C420.523 113.338 420.87 113.218 421.15 112.978C421.43 112.751 421.57 112.311 421.57 111.658V99.4978H423.69V111.758C423.69 112.424 423.577 113.004 423.35 113.498C423.123 114.004 422.77 114.391 422.29 114.658C421.823 114.938 421.203 115.078 420.43 115.078ZM421.43 96.6178C421.43 96.1778 421.543 95.8645 421.77 95.6778C422.01 95.4912 422.303 95.3978 422.65 95.3978C422.97 95.3978 423.25 95.4912 423.49 95.6778C423.73 95.8645 423.85 96.1778 423.85 96.6178C423.85 97.0445 423.73 97.3578 423.49 97.5578C423.25 97.7445 422.97 97.8378 422.65 97.8378C422.303 97.8378 422.01 97.7445 421.77 97.5578C421.543 97.3578 421.43 97.0445 421.43 96.6178ZM430.119 102.678C430.119 102.958 430.106 103.278 430.079 103.638C430.066 103.998 430.046 104.331 430.019 104.638H430.079C430.186 104.504 430.313 104.344 430.459 104.158C430.619 103.958 430.779 103.758 430.939 103.558C431.099 103.358 431.246 103.184 431.379 103.038L434.679 99.4978H437.139L432.799 104.118L437.419 110.278H434.919L431.359 105.458L430.119 106.498V110.278H428.019V95.0778H430.119V102.678ZM442.311 110.278H440.191V95.0778H442.311V110.278ZM458.72 99.2978C459.934 99.2978 460.847 99.6112 461.46 100.238C462.074 100.864 462.38 101.871 462.38 103.258V110.278H460.26V103.538C460.26 102.711 460.094 102.091 459.76 101.678C459.44 101.251 458.934 101.038 458.24 101.038C457.28 101.038 456.594 101.338 456.18 101.938C455.767 102.524 455.56 103.378 455.56 104.498V110.278H453.46V103.538C453.46 102.991 453.38 102.531 453.22 102.158C453.074 101.784 452.854 101.504 452.56 101.318C452.267 101.131 451.887 101.038 451.42 101.038C450.754 101.038 450.227 101.184 449.84 101.478C449.454 101.771 449.174 102.204 449 102.778C448.84 103.338 448.76 104.024 448.76 104.838V110.278H446.64V99.4978H448.32L448.62 100.938H448.74C448.967 100.564 449.24 100.258 449.56 100.018C449.894 99.7778 450.26 99.5978 450.66 99.4778C451.06 99.3578 451.474 99.2978 451.9 99.2978C452.714 99.2978 453.4 99.4445 453.96 99.7378C454.52 100.018 454.927 100.451 455.18 101.038H455.34C455.687 100.438 456.167 99.9978 456.78 99.7178C457.394 99.4378 458.04 99.2978 458.72 99.2978ZM472.085 99.2978C473.338 99.2978 474.298 99.6112 474.965 100.238C475.632 100.864 475.965 101.871 475.965 103.258V110.278H473.865V103.558C473.865 102.718 473.685 102.091 473.325 101.678C472.978 101.251 472.418 101.038 471.645 101.038C470.552 101.038 469.792 101.364 469.365 102.018C468.952 102.671 468.745 103.611 468.745 104.838V110.278H466.625V99.4978H468.305L468.605 100.938H468.725C468.965 100.564 469.258 100.258 469.605 100.018C469.952 99.7778 470.338 99.5978 470.765 99.4778C471.192 99.3578 471.632 99.2978 472.085 99.2978ZM489.723 104.878C489.723 105.771 489.603 106.564 489.363 107.258C489.123 107.951 488.783 108.538 488.343 109.018C487.903 109.498 487.369 109.864 486.743 110.118C486.116 110.358 485.409 110.478 484.623 110.478C483.903 110.478 483.236 110.358 482.623 110.118C482.009 109.864 481.476 109.498 481.023 109.018C480.583 108.538 480.236 107.951 479.983 107.258C479.729 106.564 479.603 105.764 479.603 104.858C479.603 103.671 479.803 102.664 480.203 101.838C480.616 101.011 481.203 100.384 481.963 99.9578C482.736 99.5178 483.643 99.2978 484.683 99.2978C485.669 99.2978 486.536 99.5178 487.283 99.9578C488.043 100.384 488.636 101.011 489.063 101.838C489.503 102.664 489.723 103.678 489.723 104.878ZM481.783 104.878C481.783 105.678 481.883 106.371 482.083 106.958C482.283 107.531 482.596 107.971 483.023 108.278C483.449 108.584 483.996 108.738 484.663 108.738C485.329 108.738 485.876 108.584 486.303 108.278C486.729 107.971 487.043 107.531 487.243 106.958C487.443 106.371 487.543 105.678 487.543 104.878C487.543 104.051 487.436 103.358 487.223 102.798C487.023 102.238 486.709 101.811 486.283 101.518C485.869 101.211 485.323 101.058 484.643 101.058C483.643 101.058 482.916 101.391 482.463 102.058C482.009 102.724 481.783 103.664 481.783 104.878ZM498.79 99.2978C500.083 99.2978 501.123 99.7645 501.91 100.698C502.71 101.631 503.11 103.024 503.11 104.878C503.11 106.091 502.93 107.118 502.57 107.958C502.21 108.798 501.703 109.431 501.05 109.858C500.397 110.271 499.637 110.478 498.77 110.478C498.223 110.478 497.743 110.411 497.33 110.278C496.917 110.131 496.563 109.944 496.27 109.718C495.99 109.478 495.743 109.224 495.53 108.958H495.39C495.43 109.198 495.463 109.484 495.49 109.818C495.517 110.138 495.53 110.424 495.53 110.678V115.078H493.41V99.4978H495.13L495.43 100.938H495.53C495.743 100.644 495.997 100.371 496.29 100.118C496.583 99.8645 496.937 99.6645 497.35 99.5178C497.763 99.3712 498.243 99.2978 498.79 99.2978ZM498.29 101.038C497.623 101.038 497.09 101.171 496.69 101.438C496.29 101.691 495.997 102.078 495.81 102.598C495.637 103.104 495.543 103.751 495.53 104.538V104.858C495.53 105.684 495.617 106.391 495.79 106.978C495.963 107.551 496.25 107.991 496.65 108.298C497.063 108.591 497.623 108.738 498.33 108.738C498.93 108.738 499.417 108.578 499.79 108.258C500.177 107.924 500.463 107.464 500.65 106.878C500.837 106.291 500.93 105.611 500.93 104.838C500.93 103.664 500.717 102.738 500.29 102.058C499.863 101.378 499.197 101.038 498.29 101.038Z" fill="black" fill-opacity="0.5"/>
<rect x="844.5" y="67.5" width="147" height="47" rx="13.5" fill="white"/>
<rect x="844.5" y="67.5" width="147" height="47" rx="13.5" stroke="black" stroke-width="3"/>
<path d="M857.41 101.887V98.957H858.826V90.5879H857.41V87.9219L863.416 87.3457V88.6152C863.82 88.2311 864.288 87.9251 864.822 87.6973C865.356 87.4629 865.9 87.3457 866.453 87.3457C867.404 87.3457 868.217 87.5703 868.895 88.0195C869.578 88.4688 870.102 89.1003 870.467 89.9141C870.831 90.7279 871.014 91.6816 871.014 92.7754C871.014 93.8626 870.835 94.8132 870.477 95.627C870.118 96.4342 869.614 97.0592 868.963 97.502C868.318 97.9447 867.563 98.166 866.697 98.166C865.577 98.166 864.516 97.7591 863.514 96.9453V98.957H864.93V101.887H857.41ZM864.939 95.2461C865.402 95.2461 865.76 95.028 866.014 94.5918C866.268 94.1556 866.395 93.5469 866.395 92.7656C866.395 91.9844 866.268 91.3724 866.014 90.9297C865.76 90.487 865.402 90.2656 864.939 90.2656C864.699 90.2656 864.445 90.3047 864.178 90.3828C863.911 90.4544 863.689 90.5553 863.514 90.6855V94.7969C863.689 94.9206 863.911 95.028 864.178 95.1191C864.445 95.2038 864.699 95.2461 864.939 95.2461ZM879.299 98.1758C877.365 98.1758 875.848 97.6908 874.748 96.7207C873.654 95.7441 873.107 94.3932 873.107 92.668C873.107 91.5807 873.345 90.64 873.82 89.8457C874.302 89.0514 874.973 88.4395 875.832 88.0098C876.691 87.5736 877.691 87.3555 878.83 87.3555C879.943 87.3555 880.897 87.5605 881.691 87.9707C882.486 88.3743 883.091 88.9408 883.508 89.6699C883.931 90.3926 884.143 91.2292 884.143 92.1797C884.143 92.401 884.133 92.6159 884.113 92.8242C884.094 93.026 884.071 93.2116 884.045 93.3809H877.766C877.876 94.0449 878.176 94.5234 878.664 94.8164C879.159 95.1029 879.761 95.2461 880.471 95.2461C881.07 95.2461 881.639 95.1419 882.18 94.9336C882.727 94.7188 883.189 94.4518 883.566 94.1328L883.83 94.25V97.0527C883.518 97.2676 883.114 97.4596 882.619 97.6289C882.124 97.7982 881.587 97.9316 881.008 98.0293C880.435 98.127 879.865 98.1758 879.299 98.1758ZM879.084 89.7578C878.648 89.7578 878.319 89.9271 878.098 90.2656C877.876 90.6042 877.753 91.0762 877.727 91.6816H880.441C880.415 91.0762 880.292 90.6042 880.07 90.2656C879.855 89.9271 879.527 89.7578 879.084 89.7578ZM886.393 98V95.0703H887.809V90.5879H886.393V87.9219L892.398 87.3457V88.6738C892.802 88.2507 893.307 87.9251 893.912 87.6973C894.518 87.4629 895.169 87.3457 895.865 87.3457C897.044 87.3457 897.906 87.681 898.453 88.3516C899.007 89.0156 899.283 90.0182 899.283 91.3594V95.0703H900.65V98H894.596V91.3594C894.596 90.9818 894.514 90.7083 894.352 90.5391C894.189 90.3633 893.974 90.2754 893.707 90.2754C893.486 90.2754 893.264 90.3405 893.043 90.4707C892.828 90.6009 892.646 90.7799 892.496 91.0078V95.0703H893.375V98H886.393ZM907.236 98.1758C906.292 98.1758 905.479 97.9512 904.795 97.502C904.111 97.0527 903.587 96.4212 903.223 95.6074C902.858 94.7871 902.676 93.8333 902.676 92.7461C902.676 91.6523 902.855 90.7018 903.213 89.8945C903.571 89.0872 904.072 88.4622 904.717 88.0195C905.368 87.5768 906.126 87.3555 906.992 87.3555C908.112 87.3555 909.173 87.7624 910.176 88.5762V86.0664H908.467V83.4004L914.863 82.7656V95.0703H916.23V98H910.273V96.9062C909.87 97.2904 909.401 97.5996 908.867 97.834C908.333 98.0618 907.79 98.1758 907.236 98.1758ZM908.75 95.2559C908.997 95.2559 909.251 95.2168 909.512 95.1387C909.779 95.0605 910 94.9596 910.176 94.8359V90.7246C910 90.5944 909.779 90.487 909.512 90.4023C909.251 90.3177 908.997 90.2754 908.75 90.2754C908.294 90.2754 907.936 90.4935 907.676 90.9297C907.422 91.3659 907.295 91.9746 907.295 92.7559C907.295 93.5371 907.422 94.1491 907.676 94.5918C907.936 95.0345 908.294 95.2559 908.75 95.2559ZM918.334 98V95.0703H919.848V90.5879H918.334V87.9219L924.535 87.3457V95.0703H926.049V98H918.334ZM922.191 86.6914C921.339 86.6914 920.655 86.4863 920.141 86.0762C919.633 85.666 919.379 85.1224 919.379 84.4453C919.379 83.7682 919.633 83.2344 920.141 82.8438C920.648 82.4466 921.335 82.248 922.201 82.248C923.087 82.248 923.773 82.4401 924.262 82.8242C924.757 83.2083 925.004 83.7487 925.004 84.4453C925.004 85.1354 924.75 85.6823 924.242 86.0859C923.741 86.4896 923.057 86.6914 922.191 86.6914ZM928.104 98V95.0703H929.52V90.5879H928.104V87.9219L934.109 87.3457V88.6738C934.513 88.2507 935.018 87.9251 935.623 87.6973C936.229 87.4629 936.88 87.3457 937.576 87.3457C938.755 87.3457 939.617 87.681 940.164 88.3516C940.717 89.0156 940.994 90.0182 940.994 91.3594V95.0703H942.361V98H936.307V91.3594C936.307 90.9818 936.225 90.7083 936.062 90.5391C935.9 90.3633 935.685 90.2754 935.418 90.2754C935.197 90.2754 934.975 90.3405 934.754 90.4707C934.539 90.6009 934.357 90.7799 934.207 91.0078V95.0703H935.086V98H928.104ZM952.785 95.3145C954.055 95.3145 955.012 95.5716 955.656 96.0859C956.307 96.6003 956.633 97.3327 956.633 98.2832C956.633 99.11 956.35 99.8066 955.783 100.373C955.223 100.939 954.439 101.366 953.43 101.652C952.421 101.939 951.242 102.082 949.895 102.082C948.56 102.082 947.473 101.962 946.633 101.721C945.799 101.486 945.188 101.171 944.797 100.773C944.413 100.383 944.221 99.9564 944.221 99.4941C944.221 99.1426 944.351 98.8236 944.611 98.5371C944.878 98.2507 945.217 98.0423 945.627 97.9121C945.158 97.5345 944.924 97.0397 944.924 96.4277C944.924 95.8874 945.116 95.4349 945.5 95.0703C945.891 94.6992 946.444 94.4258 947.16 94.25C946.288 93.9961 945.562 93.599 944.982 93.0586C944.41 92.5182 944.123 91.8314 944.123 90.998C944.123 89.9043 944.628 89.0254 945.637 88.3613C946.646 87.6908 948.12 87.3555 950.061 87.3555C951.083 87.3555 951.997 87.4857 952.805 87.7461L956.867 87.3457V90.373H955.637C955.682 90.5749 955.705 90.7832 955.705 90.998C955.705 92.0918 955.184 92.9707 954.143 93.6348C953.101 94.2923 951.617 94.6211 949.689 94.6211C949.221 94.6211 948.986 94.735 948.986 94.9629C948.986 95.1973 949.221 95.3145 949.689 95.3145H952.785ZM950.061 89.4258C949.663 89.4193 949.328 89.556 949.055 89.8359C948.781 90.1094 948.645 90.4902 948.645 90.9785C948.645 91.4733 948.778 91.8607 949.045 92.1406C949.318 92.4206 949.657 92.5573 950.061 92.5508C950.464 92.5443 950.799 92.4043 951.066 92.1309C951.34 91.8509 951.477 91.4668 951.477 90.9785C951.477 90.4967 951.34 90.1191 951.066 89.8457C950.799 89.5723 950.464 89.4323 950.061 89.4258ZM947.189 98.9473C947.189 99.3379 947.391 99.6439 947.795 99.8652C948.199 100.093 948.801 100.207 949.602 100.207C950.474 100.207 951.102 100.106 951.486 99.9043C951.87 99.7025 952.062 99.4453 952.062 99.1328C952.062 98.8073 951.828 98.6445 951.359 98.6445H948.361C947.964 98.6445 947.596 98.6185 947.258 98.5664C947.212 98.6901 947.189 98.8171 947.189 98.9473ZM961.061 98.2637C960.234 98.2637 959.57 98.0391 959.068 97.5898C958.567 97.1406 958.316 96.5352 958.316 95.7734C958.316 95.0182 958.567 94.4225 959.068 93.9863C959.57 93.5501 960.234 93.332 961.061 93.332C961.894 93.332 962.558 93.5501 963.053 93.9863C963.554 94.4225 963.805 95.0182 963.805 95.7734C963.805 96.5352 963.554 97.1406 963.053 97.5898C962.551 98.0391 961.887 98.2637 961.061 98.2637ZM968.135 98.2637C967.308 98.2637 966.644 98.0391 966.143 97.5898C965.641 97.1406 965.391 96.5352 965.391 95.7734C965.391 95.0182 965.641 94.4225 966.143 93.9863C966.644 93.5501 967.308 93.332 968.135 93.332C968.968 93.332 969.632 93.5501 970.127 93.9863C970.628 94.4225 970.879 95.0182 970.879 95.7734C970.879 96.5352 970.628 97.1406 970.127 97.5898C969.626 98.0391 968.962 98.2637 968.135 98.2637ZM975.209 98.2637C974.382 98.2637 973.718 98.0391 973.217 97.5898C972.715 97.1406 972.465 96.5352 972.465 95.7734C972.465 95.0182 972.715 94.4225 973.217 93.9863C973.718 93.5501 974.382 93.332 975.209 93.332C976.042 93.332 976.706 93.5501 977.201 93.9863C977.702 94.4225 977.953 95.0182 977.953 95.7734C977.953 96.5352 977.702 97.1406 977.201 97.5898C976.7 98.0391 976.036 98.2637 975.209 98.2637Z" fill="black"/>
</svg>
