<svg width="387" height="195" viewBox="0 0 387 195" fill="none" xmlns="http://www.w3.org/2000/svg">
<rect x="0.5" y="13.5" width="386" height="181" rx="19.5" stroke="black" stroke-opacity="0.1"/>
<path d="M160.352 21.2344C159.525 21.2344 158.838 21.1595 158.291 21.0098C157.751 20.86 157.314 20.6745 156.982 20.4531C156.657 20.2253 156.406 20.0007 156.23 19.7793C156.172 19.6947 156.12 19.6133 156.074 19.5352C156.029 19.457 155.996 19.3691 155.977 19.2715C155.951 19.1413 155.924 18.972 155.898 18.7637C155.872 18.5488 155.869 18.3014 155.889 18.0215C155.895 17.9043 155.918 17.8229 155.957 17.7773C156.003 17.7253 156.077 17.6862 156.182 17.6602C156.37 17.6146 156.615 17.5755 156.914 17.543C157.22 17.5039 157.438 17.4844 157.568 17.4844C157.705 17.4844 157.816 17.5104 157.9 17.5625C157.985 17.6146 158.086 17.7025 158.203 17.8262C158.333 17.9629 158.558 18.1387 158.877 18.3535C159.196 18.5618 159.688 18.666 160.352 18.666C160.99 18.666 161.471 18.5326 161.797 18.2656C162.122 17.9987 162.285 17.6276 162.285 17.1523C162.285 16.8984 162.207 16.6608 162.051 16.4395C161.901 16.2116 161.624 15.987 161.221 15.7656C160.817 15.5378 160.241 15.3001 159.492 15.0527C158.255 14.6361 157.363 14.1185 156.816 13.5C156.27 12.8815 155.996 12.0221 155.996 10.9219C155.996 10.0104 156.217 9.2487 156.66 8.63672C157.103 8.02474 157.715 7.5625 158.496 7.25C159.277 6.9375 160.179 6.78125 161.201 6.78125C161.989 6.78125 162.64 6.87565 163.154 7.06445C163.675 7.24674 164.079 7.45508 164.365 7.68945C164.652 7.91732 164.837 8.10286 164.922 8.24609C164.974 8.33073 165.007 8.39583 165.02 8.44141C165.039 8.48047 165.052 8.53581 165.059 8.60742C165.078 8.80924 165.085 9.03385 165.078 9.28125C165.072 9.52865 165.049 9.80859 165.01 10.1211C164.99 10.2253 164.954 10.2969 164.902 10.3359C164.857 10.3685 164.785 10.3848 164.688 10.3848C164.056 10.3978 163.568 10.3652 163.223 10.2871C163.086 10.2546 162.995 10.222 162.949 10.1895C162.904 10.1569 162.845 10.1048 162.773 10.0332C162.669 9.90951 162.503 9.76628 162.275 9.60352C162.054 9.43424 161.696 9.34961 161.201 9.34961C160.518 9.34961 160.033 9.50586 159.746 9.81836C159.46 10.1243 159.316 10.4694 159.316 10.8535C159.316 11.3092 159.528 11.6673 159.951 11.9277C160.374 12.1816 161.042 12.4714 161.953 12.7969C162.715 13.0638 163.369 13.3535 163.916 13.666C164.463 13.9785 164.88 14.3789 165.166 14.8672C165.459 15.3555 165.605 16 165.605 16.8008C165.605 17.7969 165.374 18.6237 164.912 19.2812C164.456 19.9388 163.831 20.4303 163.037 20.7559C162.249 21.0749 161.354 21.2344 160.352 21.2344ZM167.354 7.71875C167.354 7.63411 167.38 7.55924 167.432 7.49414C167.484 7.42904 167.552 7.3444 167.637 7.24023C167.819 7.0319 168.031 6.8138 168.271 6.58594C168.512 6.35156 168.757 6.12695 169.004 5.91211C169.16 5.78841 169.277 5.72656 169.355 5.72656C169.434 5.72656 169.554 5.78841 169.717 5.91211C170.244 6.36784 170.693 6.81055 171.064 7.24023C171.149 7.33789 171.217 7.42253 171.27 7.49414C171.328 7.55924 171.357 7.63411 171.357 7.71875C171.357 7.80339 171.328 7.87826 171.27 7.94336C171.217 8.00846 171.146 8.09635 171.055 8.20703C170.879 8.40885 170.674 8.62695 170.439 8.86133C170.205 9.08919 169.964 9.30729 169.717 9.51562C169.626 9.59375 169.554 9.64583 169.502 9.67188C169.45 9.69141 169.401 9.70117 169.355 9.70117C169.31 9.70117 169.261 9.69141 169.209 9.67188C169.163 9.64583 169.089 9.59375 168.984 9.51562C168.724 9.30729 168.48 9.08919 168.252 8.86133C168.024 8.62695 167.819 8.40234 167.637 8.1875C167.552 8.08333 167.484 8.00195 167.432 7.94336C167.38 7.87826 167.354 7.80339 167.354 7.71875ZM170.889 20.4824C170.889 20.6777 170.846 20.8145 170.762 20.8926C170.684 20.9642 170.547 21 170.352 21H168.34C168.145 21 168.005 20.9642 167.92 20.8926C167.842 20.8145 167.803 20.6777 167.803 20.4824V11.5176C167.803 11.3223 167.842 11.1888 167.92 11.1172C168.005 11.0391 168.145 11 168.34 11H170.352C170.547 11 170.684 11.0391 170.762 11.1172C170.846 11.1888 170.889 11.3223 170.889 11.5176V20.4824ZM183.213 11.9375V19.8574C183.213 21.7585 182.669 23.207 181.582 24.2031C180.501 25.1992 179.017 25.6973 177.129 25.6973C176.348 25.6973 175.729 25.6387 175.273 25.5215C174.818 25.4108 174.473 25.3034 174.238 25.1992C174.089 25.1276 173.991 25.0527 173.945 24.9746C173.88 24.8704 173.805 24.7174 173.721 24.5156C173.643 24.3138 173.568 24.0924 173.496 23.8516C173.477 23.7604 173.473 23.6921 173.486 23.6465C173.512 23.5814 173.561 23.513 173.633 23.4414C173.75 23.3242 173.916 23.1875 174.131 23.0312C174.352 22.875 174.521 22.7741 174.639 22.7285C174.762 22.6829 174.876 22.6895 174.98 22.748C175.15 22.8392 175.391 22.9401 175.703 23.0508C176.022 23.168 176.468 23.2266 177.041 23.2266C177.952 23.2266 178.695 22.9922 179.268 22.5234C179.84 22.0547 180.127 21.332 180.127 20.3555V20.0039H180.088C179.945 20.1862 179.759 20.3717 179.531 20.5605C179.303 20.7493 179.007 20.9089 178.643 21.0391C178.285 21.1693 177.822 21.2344 177.256 21.2344C176.273 21.2344 175.465 21.0228 174.834 20.5996C174.209 20.1699 173.747 19.5807 173.447 18.832C173.154 18.0833 173.008 17.2305 173.008 16.2734C173.008 15.2253 173.18 14.2845 173.525 13.4512C173.87 12.6178 174.45 11.9603 175.264 11.4785C176.077 10.9902 177.191 10.7461 178.604 10.7461C179.45 10.7461 180.16 10.8079 180.732 10.9316C181.312 11.0553 181.797 11.2083 182.188 11.3906C182.578 11.5729 182.92 11.7552 183.213 11.9375ZM178.496 13.1094C177.741 13.1094 177.165 13.3633 176.768 13.8711C176.37 14.3789 176.172 15.1667 176.172 16.2344C176.172 17.9076 176.862 18.7441 178.242 18.7441C178.783 18.7441 179.196 18.6335 179.482 18.4121C179.769 18.1908 179.984 17.9108 180.127 17.5723V13.5391C179.984 13.4349 179.782 13.3372 179.521 13.2461C179.261 13.1549 178.919 13.1094 178.496 13.1094ZM195.518 14.7793V20.4824C195.518 20.6777 195.475 20.8145 195.391 20.8926C195.312 20.9642 195.176 21 194.98 21H192.969C192.773 21 192.633 20.9642 192.549 20.8926C192.471 20.8145 192.432 20.6777 192.432 20.4824V15.2871C192.432 14.5775 192.282 14.0599 191.982 13.7344C191.683 13.4089 191.276 13.2461 190.762 13.2461C190.247 13.2461 189.85 13.3568 189.57 13.5781C189.297 13.7995 189.085 14.0794 188.936 14.418V20.4824C188.936 20.6777 188.893 20.8145 188.809 20.8926C188.73 20.9642 188.594 21 188.398 21H186.387C186.191 21 186.051 20.9642 185.967 20.8926C185.889 20.8145 185.85 20.6777 185.85 20.4824V12.2988C185.85 12.1426 185.882 12.0221 185.947 11.9375C186.084 11.7552 186.247 11.5697 186.436 11.3809C186.631 11.1921 186.868 10.9902 187.148 10.7754C187.233 10.7103 187.314 10.6777 187.393 10.6777C187.464 10.6777 187.546 10.7103 187.637 10.7754C187.91 10.9902 188.145 11.1953 188.34 11.3906C188.535 11.5859 188.708 11.7878 188.857 11.9961H188.906C189.017 11.8529 189.183 11.6868 189.404 11.498C189.626 11.3027 189.935 11.1302 190.332 10.9805C190.736 10.8307 191.25 10.7559 191.875 10.7559C192.487 10.7559 193.07 10.8796 193.623 11.127C194.176 11.3743 194.629 11.791 194.98 12.377C195.339 12.9629 195.518 13.7637 195.518 14.7793ZM203.232 7.71875C203.232 7.63411 203.258 7.55924 203.311 7.49414C203.363 7.42904 203.431 7.3444 203.516 7.24023C203.698 7.0319 203.91 6.8138 204.15 6.58594C204.391 6.35156 204.635 6.12695 204.883 5.91211C205.039 5.78841 205.156 5.72656 205.234 5.72656C205.312 5.72656 205.433 5.78841 205.596 5.91211C206.123 6.36784 206.572 6.81055 206.943 7.24023C207.028 7.33789 207.096 7.42253 207.148 7.49414C207.207 7.55924 207.236 7.63411 207.236 7.71875C207.236 7.80339 207.207 7.87826 207.148 7.94336C207.096 8.00846 207.025 8.09635 206.934 8.20703C206.758 8.40885 206.553 8.62695 206.318 8.86133C206.084 9.08919 205.843 9.30729 205.596 9.51562C205.505 9.59375 205.433 9.64583 205.381 9.67188C205.329 9.69141 205.28 9.70117 205.234 9.70117C205.189 9.70117 205.14 9.69141 205.088 9.67188C205.042 9.64583 204.967 9.59375 204.863 9.51562C204.603 9.30729 204.359 9.08919 204.131 8.86133C203.903 8.62695 203.698 8.40234 203.516 8.1875C203.431 8.08333 203.363 8.00195 203.311 7.94336C203.258 7.87826 203.232 7.80339 203.232 7.71875ZM206.768 20.4824C206.768 20.6777 206.725 20.8145 206.641 20.8926C206.562 20.9642 206.426 21 206.23 21H204.219C204.023 21 203.883 20.9642 203.799 20.8926C203.721 20.8145 203.682 20.6777 203.682 20.4824V11.5176C203.682 11.3223 203.721 11.1888 203.799 11.1172C203.883 11.0391 204.023 11 204.219 11H206.23C206.426 11 206.562 11.0391 206.641 11.1172C206.725 11.1888 206.768 11.3223 206.768 11.5176V20.4824ZM219.092 14.7793V20.4824C219.092 20.6777 219.049 20.8145 218.965 20.8926C218.887 20.9642 218.75 21 218.555 21H216.543C216.348 21 216.208 20.9642 216.123 20.8926C216.045 20.8145 216.006 20.6777 216.006 20.4824V15.2871C216.006 14.5775 215.856 14.0599 215.557 13.7344C215.257 13.4089 214.85 13.2461 214.336 13.2461C213.822 13.2461 213.424 13.3568 213.145 13.5781C212.871 13.7995 212.66 14.0794 212.51 14.418V20.4824C212.51 20.6777 212.467 20.8145 212.383 20.8926C212.305 20.9642 212.168 21 211.973 21H209.961C209.766 21 209.626 20.9642 209.541 20.8926C209.463 20.8145 209.424 20.6777 209.424 20.4824V12.2988C209.424 12.1426 209.456 12.0221 209.521 11.9375C209.658 11.7552 209.821 11.5697 210.01 11.3809C210.205 11.1921 210.443 10.9902 210.723 10.7754C210.807 10.7103 210.889 10.6777 210.967 10.6777C211.038 10.6777 211.12 10.7103 211.211 10.7754C211.484 10.9902 211.719 11.1953 211.914 11.3906C212.109 11.5859 212.282 11.7878 212.432 11.9961H212.48C212.591 11.8529 212.757 11.6868 212.979 11.498C213.2 11.3027 213.509 11.1302 213.906 10.9805C214.31 10.8307 214.824 10.7559 215.449 10.7559C216.061 10.7559 216.644 10.8796 217.197 11.127C217.751 11.3743 218.203 11.791 218.555 12.377C218.913 12.9629 219.092 13.7637 219.092 14.7793Z" fill="black"/>
</svg>
